<?xml version="1.0" encoding="UTF-8" standalone="no"?>
<!DOCTYPE svg PUBLIC "-//W3C//DTD SVG 1.1//EN" "http://www.w3.org/Graphics/SVG/1.1/DTD/svg11.dtd">
<!-- Created with Vectornator (http://vectornator.io/) -->
<svg height="100%" stroke-miterlimit="10" style="fill-rule:nonzero;clip-rule:evenodd;stroke-linecap:round;stroke-linejoin:round;" version="1.1" viewBox="498.023 165 923.953 300" width="100%" xml:space="preserve" xmlns="http://www.w3.org/2000/svg" xmlns:vectornator="http://vectornator.io" xmlns:xlink="http://www.w3.org/1999/xlink">
<defs>
<linearGradient gradientTransform="matrix(198.902 -100.371 100.371 198.902 501.367 306.194)" gradientUnits="userSpaceOnUse" id="LinearGradient" x1="0" x2="1" y1="0" y2="0">
<stop offset="0" stop-color="#ffc34d"/>
<stop offset="1" stop-color="#ffa800"/>
</linearGradient>
<linearGradient gradientTransform="matrix(44.4903 -193.76 193.76 44.4903 575.574 463.003)" gradientUnits="userSpaceOnUse" id="LinearGradient_2" x1="0" x2="1" y1="0" y2="0">
<stop offset="0" stop-color="#fea44c"/>
<stop offset="1" stop-color="#fc6500"/>
</linearGradient>
<linearGradient gradientTransform="matrix(46.88 -93.7683 93.7683 46.88 573.1 364.204)" gradientUnits="userSpaceOnUse" id="LinearGradient_3" x1="0" x2="1" y1="0" y2="0">
<stop offset="0" stop-color="#ffb54d"/>
<stop offset="1" stop-color="#fe8900"/>
</linearGradient>
</defs>
<clipPath id="ArtboardFrame">
<rect height="300" width="923.953" x="498.023" y="165"/>
</clipPath>
<g clip-path="url(#ArtboardFrame)" id="Layer" vectornator:layerName="Layer">
<g opacity="1" vectornator:layerName="グループ 8">
<g opacity="1" vectornator:layerName="グループ 1">
<path d="M548.848 190.487C562.201 168.313 589.695 159.14 613.688 168.853L647.844 182.681C677.824 194.819 690.571 230.341 675.149 258.771L634.384 333.917C619.826 360.754 586.193 370.594 559.466 355.835L526.037 337.376C499.131 322.52 489.948 288.289 505.804 261.961L548.848 190.487Z" fill="url(#LinearGradient)" fill-rule="nonzero" opacity="1" stroke="none" vectornator:layerName="曲線 2"/>
<path d="M557.339 292.789C570.693 270.616 598.186 261.443 622.178 271.156L656.335 284.984C686.315 297.121 699.062 332.644 683.64 361.074L642.875 436.22C628.317 463.057 594.685 472.896 567.957 458.138L534.527 439.679C507.623 424.823 498.439 390.592 514.295 364.263L557.339 292.789Z" fill="url(#LinearGradient_2)" fill-rule="nonzero" opacity="1" stroke="none" vectornator:layerName="曲線 1"/>
<path d="M603.8 267.318C585.32 266.839 567.356 276.157 557.341 292.788L529.379 339.223L559.475 355.838C586.202 370.594 619.832 360.755 634.389 333.92L660.006 286.7C658.799 286.104 657.606 285.495 656.336 284.981L622.175 271.16C616.177 268.731 609.96 267.478 603.8 267.318Z" fill="url(#LinearGradient_3)" fill-rule="nonzero" opacity="1" stroke="none" vectornator:layerName="曲線 3"/>
</g>
<g opacity="1" vectornator:layerName="グループ 5">
<path d="M853.737 346.73L809.257 346.73L801.897 368.01L778.377 368.01L818.537 256.17L844.617 256.17L884.777 368.01L861.097 368.01L853.737 346.73ZM847.657 328.81L831.497 282.09L815.337 328.81L847.657 328.81Z" fill="#24293d" fill-rule="nonzero" opacity="1" stroke="none"/>
<path d="M889.057 323.69C889.057 314.517 890.923 306.49 894.657 299.61C898.39 292.73 903.563 287.397 910.177 283.61C916.79 279.823 924.363 277.93 932.897 277.93C943.883 277.93 952.977 280.677 960.177 286.17C967.377 291.663 972.203 299.37 974.657 309.29L950.497 309.29C949.217 305.45 947.057 302.437 944.017 300.25C940.977 298.063 937.217 296.97 932.737 296.97C926.337 296.97 921.27 299.29 917.537 303.93C913.803 308.57 911.937 315.157 911.937 323.69C911.937 332.117 913.803 338.65 917.537 343.29C921.27 347.93 926.337 350.25 932.737 350.25C941.803 350.25 947.723 346.197 950.497 338.09L974.657 338.09C972.203 347.69 967.35 355.317 960.097 360.97C952.843 366.623 943.777 369.45 932.897 369.45C924.363 369.45 916.79 367.557 910.177 363.77C903.563 359.983 898.39 354.65 894.657 347.77C890.923 340.89 889.057 332.863 889.057 323.69Z" fill="#24293d" fill-rule="nonzero" opacity="1" stroke="none"/>
<path d="M980.377 323.69C980.377 314.517 982.243 306.49 985.977 299.61C989.71 292.73 994.883 287.397 1001.5 283.61C1008.11 279.823 1015.68 277.93 1024.22 277.93C1035.2 277.93 1044.3 280.677 1051.5 286.17C1058.7 291.663 1063.52 299.37 1065.98 309.29L1041.82 309.29C1040.54 305.45 1038.38 302.437 1035.34 300.25C1032.3 298.063 1028.54 296.97 1024.06 296.97C1017.66 296.97 1012.59 299.29 1008.86 303.93C1005.12 308.57 1003.26 315.157 1003.26 323.69C1003.26 332.117 1005.12 338.65 1008.86 343.29C1012.59 347.93 1017.66 350.25 1024.06 350.25C1033.12 350.25 1039.04 346.197 1041.82 338.09L1065.98 338.09C1063.52 347.69 1058.67 355.317 1051.42 360.97C1044.16 366.623 1035.1 369.45 1024.22 369.45C1015.68 369.45 1008.11 367.557 1001.5 363.77C994.883 359.983 989.71 354.65 985.977 347.77C982.243 340.89 980.377 332.863 980.377 323.69Z" fill="#24293d" fill-rule="nonzero" opacity="1" stroke="none"/>
<path d="M1116.82 369.45C1108.28 369.45 1100.6 367.557 1093.78 363.77C1086.95 359.983 1081.59 354.623 1077.7 347.69C1073.8 340.757 1071.86 332.757 1071.86 323.69C1071.86 314.623 1073.86 306.623 1077.86 299.69C1081.86 292.757 1087.32 287.397 1094.26 283.61C1101.19 279.823 1108.92 277.93 1117.46 277.93C1125.99 277.93 1133.72 279.823 1140.66 283.61C1147.59 287.397 1153.06 292.757 1157.06 299.69C1161.06 306.623 1163.06 314.623 1163.06 323.69C1163.06 332.757 1161 340.757 1156.9 347.69C1152.79 354.623 1147.24 359.983 1140.26 363.77C1133.27 367.557 1125.46 369.45 1116.82 369.45ZM1116.82 349.93C1120.87 349.93 1124.68 348.943 1128.26 346.97C1131.83 344.997 1134.68 342.037 1136.82 338.09C1138.95 334.143 1140.02 329.343 1140.02 323.69C1140.02 315.263 1137.8 308.783 1133.38 304.25C1128.95 299.717 1123.54 297.45 1117.14 297.45C1110.74 297.45 1105.38 299.717 1101.06 304.25C1096.74 308.783 1094.58 315.263 1094.58 323.69C1094.58 332.117 1096.68 338.597 1100.9 343.13C1105.11 347.663 1110.42 349.93 1116.82 349.93Z" fill="#24293d" fill-rule="nonzero" opacity="1" stroke="none"/>
<path d="M1258.22 279.37L1258.22 368.01L1235.66 368.01L1235.66 356.81C1232.78 360.65 1229.02 363.663 1224.38 365.85C1219.74 368.037 1214.7 369.13 1209.26 369.13C1202.32 369.13 1196.19 367.663 1190.86 364.73C1185.52 361.797 1181.34 357.477 1178.3 351.77C1175.26 346.063 1173.74 339.263 1173.74 331.37L1173.74 279.37L1196.14 279.37L1196.14 328.17C1196.14 335.21 1197.9 340.623 1201.42 344.41C1204.94 348.197 1209.74 350.09 1215.82 350.09C1222 350.09 1226.86 348.197 1230.38 344.41C1233.9 340.623 1235.66 335.21 1235.66 328.17L1235.66 279.37L1258.22 279.37Z" fill="#24293d" fill-rule="nonzero" opacity="1" stroke="none"/>
<path d="M1324.42 278.09C1334.98 278.09 1343.51 281.423 1350.02 288.09C1356.52 294.757 1359.78 304.063 1359.78 316.01L1359.78 368.01L1337.38 368.01L1337.38 319.05C1337.38 312.01 1335.62 306.597 1332.1 302.81C1328.58 299.023 1323.78 297.13 1317.7 297.13C1311.51 297.13 1306.63 299.023 1303.06 302.81C1299.48 306.597 1297.7 312.01 1297.7 319.05L1297.7 368.01L1275.3 368.01L1275.3 279.37L1297.7 279.37L1297.7 290.41C1300.68 286.57 1304.5 283.557 1309.14 281.37C1313.78 279.183 1318.87 278.09 1324.42 278.09Z" fill="#24293d" fill-rule="nonzero" opacity="1" stroke="none"/>
<path d="M1402.14 297.77L1402.14 340.65C1402.14 343.637 1402.86 345.797 1404.3 347.13C1405.74 348.463 1408.16 349.13 1411.58 349.13L1421.98 349.13L1421.98 368.01L1407.9 368.01C1389.02 368.01 1379.58 358.837 1379.58 340.49L1379.58 297.77L1369.02 297.77L1369.02 279.37L1379.58 279.37L1379.58 257.45L1402.14 257.45L1402.14 279.37L1421.98 279.37L1421.98 297.77L1402.14 297.77Z" fill="#24293d" fill-rule="nonzero" opacity="1" stroke="none"/>
</g>
</g>
</g>
</svg>
