<?xml version="1.0" encoding="UTF-8" standalone="no"?>
<!DOCTYPE svg PUBLIC "-//W3C//DTD SVG 1.1//EN" "http://www.w3.org/Graphics/SVG/1.1/DTD/svg11.dtd">
<!-- Created with Vectornator (http://vectornator.io/) -->
<svg height="100%" stroke-miterlimit="10" style="fill-rule:nonzero;clip-rule:evenodd;stroke-linecap:round;stroke-linejoin:round;" version="1.1" viewBox="184.531 165 1550.94 300" width="100%" xml:space="preserve" xmlns="http://www.w3.org/2000/svg" xmlns:vectornator="http://vectornator.io" xmlns:xlink="http://www.w3.org/1999/xlink">
<defs>
<linearGradient gradientTransform="matrix(198.902 -100.371 100.371 198.902 187.874 306.194)" gradientUnits="userSpaceOnUse" id="LinearGradient" x1="0" x2="1" y1="0" y2="0">
<stop offset="0" stop-color="#ffc34d"/>
<stop offset="1" stop-color="#ffa800"/>
</linearGradient>
<linearGradient gradientTransform="matrix(44.4903 -193.76 193.76 44.4903 262.082 463.003)" gradientUnits="userSpaceOnUse" id="LinearGradient_2" x1="0" x2="1" y1="0" y2="0">
<stop offset="0" stop-color="#fea44c"/>
<stop offset="1" stop-color="#fc6500"/>
</linearGradient>
<linearGradient gradientTransform="matrix(46.88 -93.7683 93.7683 46.88 259.607 364.204)" gradientUnits="userSpaceOnUse" id="LinearGradient_3" x1="0" x2="1" y1="0" y2="0">
<stop offset="0" stop-color="#ffb54d"/>
<stop offset="1" stop-color="#fe8900"/>
</linearGradient>
</defs>
<clipPath id="ArtboardFrame">
<rect height="300" width="1550.94" x="184.531" y="165"/>
</clipPath>
<g clip-path="url(#ArtboardFrame)" id="Layer" vectornator:layerName="Layer">
<g opacity="1" vectornator:layerName="グループ 8">
<g opacity="1" vectornator:layerName="グループ 1">
<path d="M235.355 190.487C248.709 168.313 276.202 159.14 300.195 168.853L334.351 182.681C364.331 194.819 377.079 230.341 361.656 258.771L320.891 333.917C306.334 360.754 272.701 370.594 245.974 355.835L212.544 337.376C185.639 322.52 176.456 288.289 192.311 261.961L235.355 190.487Z" fill="url(#LinearGradient)" fill-rule="nonzero" opacity="1" stroke="none" vectornator:layerName="曲線 2"/>
<path d="M243.847 292.789C257.2 270.616 284.694 261.443 308.686 271.156L342.842 284.984C372.822 297.121 385.57 332.644 370.147 361.074L329.383 436.22C314.824 463.057 281.192 472.896 254.465 458.138L221.035 439.679C194.13 424.823 184.946 390.592 200.802 364.263L243.847 292.789Z" fill="url(#LinearGradient_2)" fill-rule="nonzero" opacity="1" stroke="none" vectornator:layerName="曲線 1"/>
<path d="M290.308 267.318C271.828 266.839 253.863 276.157 243.848 292.788L215.887 339.223L245.983 355.838C272.709 370.594 306.339 360.755 320.897 333.92L346.513 286.7C345.306 286.104 344.113 285.495 342.843 284.981L308.683 271.16C302.685 268.731 296.468 267.478 290.308 267.318Z" fill="url(#LinearGradient_3)" fill-rule="nonzero" opacity="1" stroke="none" vectornator:layerName="曲線 3"/>
</g>
<g opacity="1" vectornator:layerName="グループ 4">
<path d="M540.244 346.73L495.764 346.73L488.404 368.01L464.884 368.01L505.044 256.17L531.124 256.17L571.284 368.01L547.604 368.01L540.244 346.73ZM534.164 328.81L518.004 282.09L501.844 328.81L534.164 328.81Z" fill="#24293d" fill-rule="nonzero" opacity="1" stroke="none"/>
<path d="M608.724 292.33C611.604 288.063 615.577 284.597 620.644 281.93C625.711 279.263 631.497 277.93 638.004 277.93C645.577 277.93 652.431 279.797 658.564 283.53C664.697 287.263 669.551 292.57 673.124 299.45C676.697 306.33 678.484 314.303 678.484 323.37C678.484 332.437 676.697 340.463 673.124 347.45C669.551 354.437 664.697 359.85 658.564 363.69C652.431 367.53 645.577 369.45 638.004 369.45C631.391 369.45 625.604 368.143 620.644 365.53C615.684 362.917 611.711 359.53 608.724 355.37L608.724 368.01L586.324 368.01L586.324 249.61L608.724 249.61L608.724 292.33ZM655.604 323.37C655.604 318.037 654.511 313.423 652.324 309.53C650.137 305.637 647.257 302.677 643.684 300.65C640.111 298.623 636.244 297.61 632.084 297.61C628.031 297.61 624.217 298.65 620.644 300.73C617.071 302.81 614.191 305.823 612.004 309.77C609.817 313.717 608.724 318.357 608.724 323.69C608.724 329.023 609.817 333.663 612.004 337.61C614.191 341.557 617.071 344.57 620.644 346.65C624.217 348.73 628.031 349.77 632.084 349.77C636.244 349.77 640.111 348.703 643.684 346.57C647.257 344.437 650.137 341.397 652.324 337.45C654.511 333.503 655.604 328.81 655.604 323.37Z" fill="#24293d" fill-rule="nonzero" opacity="1" stroke="none"/>
<path d="M717.204 249.61L717.204 368.01L694.804 368.01L694.804 249.61L717.204 249.61Z" fill="#24293d" fill-rule="nonzero" opacity="1" stroke="none"/>
<path d="M733.524 323.37C733.524 314.41 735.311 306.463 738.884 299.53C742.457 292.597 747.311 287.263 753.444 283.53C759.577 279.797 766.431 277.93 774.004 277.93C780.617 277.93 786.404 279.263 791.364 281.93C796.324 284.597 800.297 287.957 803.284 292.01L803.284 279.37L825.844 279.37L825.844 368.01L803.284 368.01L803.284 355.05C800.404 359.21 796.431 362.65 791.364 365.37C786.297 368.09 780.457 369.45 773.844 369.45C766.377 369.45 759.577 367.53 753.444 363.69C747.311 359.85 742.457 354.437 738.884 347.45C735.311 340.463 733.524 332.437 733.524 323.37ZM803.284 323.69C803.284 318.25 802.217 313.583 800.084 309.69C797.951 305.797 795.071 302.81 791.444 300.73C787.817 298.65 783.924 297.61 779.764 297.61C775.604 297.61 771.764 298.623 768.244 300.65C764.724 302.677 761.871 305.637 759.684 309.53C757.497 313.423 756.404 318.037 756.404 323.37C756.404 328.703 757.497 333.37 759.684 337.37C761.871 341.37 764.751 344.437 768.324 346.57C771.897 348.703 775.711 349.77 779.764 349.77C783.924 349.77 787.817 348.73 791.444 346.65C795.071 344.57 797.951 341.583 800.084 337.69C802.217 333.797 803.284 329.13 803.284 323.69Z" fill="#24293d" fill-rule="nonzero" opacity="1" stroke="none"/>
<path d="M868.244 349.61L907.764 349.61L907.764 368.01L842.804 368.01L842.804 349.93L881.524 297.77L842.964 297.77L842.964 279.37L907.284 279.37L907.284 297.45L868.244 349.61Z" fill="#24293d" fill-rule="nonzero" opacity="1" stroke="none"/>
<path d="M1007.44 321.77C1007.44 324.97 1007.23 327.85 1006.8 330.41L942.004 330.41C942.537 336.81 944.777 341.823 948.724 345.45C952.671 349.077 957.524 350.89 963.284 350.89C971.604 350.89 977.524 347.317 981.044 340.17L1005.2 340.17C1002.64 348.703 997.737 355.717 990.484 361.21C983.231 366.703 974.324 369.45 963.764 369.45C955.231 369.45 947.577 367.557 940.804 363.77C934.031 359.983 928.751 354.623 924.964 347.69C921.177 340.757 919.284 332.757 919.284 323.69C919.284 314.517 921.151 306.463 924.884 299.53C928.617 292.597 933.844 287.263 940.564 283.53C947.284 279.797 955.017 277.93 963.764 277.93C972.191 277.93 979.737 279.743 986.404 283.37C993.071 286.997 998.244 292.143 1001.92 298.81C1005.6 305.477 1007.44 313.13 1007.44 321.77ZM984.244 315.37C984.137 309.61 982.057 304.997 978.004 301.53C973.951 298.063 968.991 296.33 963.124 296.33C957.577 296.33 952.911 298.01 949.124 301.37C945.337 304.73 943.017 309.397 942.164 315.37L984.244 315.37Z" fill="#24293d" fill-rule="nonzero" opacity="1" stroke="none"/>
</g>
<g opacity="1" vectornator:layerName="グループ 5">
<path d="M1126.6 343.985L1079.48 343.985L1070.8 368.01L1055.92 368.01L1094.98 260.595L1111.25 260.595L1150.16 368.01L1135.28 368.01L1126.6 343.985ZM1122.57 332.515L1103.04 277.955L1083.51 332.515L1122.57 332.515Z" fill="#24293d" fill-rule="nonzero" opacity="1" stroke="none"/>
<path d="M1156.94 325.385C1156.94 316.602 1158.7 308.929 1162.21 302.367C1165.72 295.806 1170.6 290.717 1176.86 287.1C1183.11 283.483 1190.26 281.675 1198.32 281.675C1208.76 281.675 1217.36 284.207 1224.13 289.27C1230.9 294.333 1235.37 301.36 1237.54 310.35L1222.35 310.35C1220.9 305.183 1218.09 301.102 1213.9 298.105C1209.72 295.108 1204.52 293.61 1198.32 293.61C1190.26 293.61 1183.75 296.374 1178.79 301.902C1173.83 307.431 1171.35 315.258 1171.35 325.385C1171.35 335.615 1173.83 343.52 1178.79 349.1C1183.75 354.68 1190.26 357.47 1198.32 357.47C1204.52 357.47 1209.69 356.023 1213.82 353.13C1217.96 350.237 1220.8 346.103 1222.35 340.73L1237.54 340.73C1235.27 349.41 1230.72 356.359 1223.9 361.577C1217.08 366.796 1208.55 369.405 1198.32 369.405C1190.26 369.405 1183.11 367.597 1176.86 363.98C1170.6 360.363 1165.72 355.248 1162.21 348.635C1158.7 342.022 1156.94 334.272 1156.94 325.385Z" fill="#24293d" fill-rule="nonzero" opacity="1" stroke="none"/>
<path d="M1246.02 325.385C1246.02 316.602 1247.78 308.929 1251.29 302.367C1254.81 295.806 1259.69 290.717 1265.94 287.1C1272.19 283.483 1279.35 281.675 1287.41 281.675C1297.85 281.675 1306.45 284.207 1313.22 289.27C1319.98 294.333 1324.45 301.36 1326.62 310.35L1311.43 310.35C1309.99 305.183 1307.17 301.102 1302.99 298.105C1298.8 295.108 1293.61 293.61 1287.41 293.61C1279.35 293.61 1272.84 296.374 1267.88 301.902C1262.92 307.431 1260.44 315.258 1260.44 325.385C1260.44 335.615 1262.92 343.52 1267.88 349.1C1272.84 354.68 1279.35 357.47 1287.41 357.47C1293.61 357.47 1298.78 356.023 1302.91 353.13C1307.04 350.237 1309.88 346.103 1311.43 340.73L1326.62 340.73C1324.35 349.41 1319.8 356.359 1312.98 361.577C1306.16 366.796 1297.64 369.405 1287.41 369.405C1279.35 369.405 1272.19 367.597 1265.94 363.98C1259.69 360.363 1254.81 355.248 1251.29 348.635C1247.78 342.022 1246.02 334.272 1246.02 325.385Z" fill="#24293d" fill-rule="nonzero" opacity="1" stroke="none"/>
<path d="M1377.42 369.405C1369.47 369.405 1362.26 367.597 1355.8 363.98C1349.34 360.363 1344.28 355.222 1340.61 348.557C1336.94 341.892 1335.11 334.168 1335.11 325.385C1335.11 316.705 1336.99 309.032 1340.77 302.367C1344.54 295.702 1349.68 290.587 1356.19 287.022C1362.7 283.457 1369.98 281.675 1378.04 281.675C1386.1 281.675 1393.39 283.457 1399.9 287.022C1406.41 290.587 1411.55 295.677 1415.32 302.29C1419.09 308.903 1420.98 316.602 1420.98 325.385C1420.98 334.168 1419.04 341.892 1415.17 348.557C1411.29 355.222 1406.05 360.363 1399.43 363.98C1392.82 367.597 1385.48 369.405 1377.42 369.405ZM1377.42 357.005C1382.49 357.005 1387.24 355.817 1391.68 353.44C1396.13 351.063 1399.72 347.498 1402.46 342.745C1405.19 337.992 1406.56 332.205 1406.56 325.385C1406.56 318.565 1405.22 312.778 1402.53 308.025C1399.85 303.272 1396.33 299.732 1391.99 297.407C1387.65 295.082 1382.95 293.92 1377.89 293.92C1372.72 293.92 1367.99 295.082 1363.71 297.407C1359.42 299.732 1355.98 303.272 1353.4 308.025C1350.82 312.778 1349.52 318.565 1349.52 325.385C1349.52 332.308 1350.79 338.147 1353.32 342.9C1355.85 347.653 1359.24 351.192 1363.47 353.517C1367.71 355.842 1372.36 357.005 1377.42 357.005Z" fill="#24293d" fill-rule="nonzero" opacity="1" stroke="none"/>
<path d="M1509.91 283.07L1509.91 368.01L1495.8 368.01L1495.8 355.455C1493.12 359.795 1489.37 363.179 1484.57 365.607C1479.76 368.036 1474.47 369.25 1468.68 369.25C1462.07 369.25 1456.12 367.881 1450.85 365.142C1445.58 362.404 1441.42 358.297 1438.38 352.82C1435.33 347.343 1433.8 340.678 1433.8 332.825L1433.8 283.07L1447.75 283.07L1447.75 330.965C1447.75 339.335 1449.87 345.767 1454.11 350.262C1458.35 354.757 1464.13 357.005 1471.47 357.005C1479.01 357.005 1484.95 354.68 1489.29 350.03C1493.63 345.38 1495.8 338.612 1495.8 329.725L1495.8 283.07L1509.91 283.07Z" fill="#24293d" fill-rule="nonzero" opacity="1" stroke="none"/>
<path d="M1570.16 281.52C1580.5 281.52 1588.87 284.646 1595.27 290.897C1601.68 297.149 1604.88 306.165 1604.88 317.945L1604.88 368.01L1590.93 368.01L1590.93 319.96C1590.93 311.487 1588.82 305.002 1584.58 300.507C1580.34 296.012 1574.56 293.765 1567.22 293.765C1559.78 293.765 1553.86 296.09 1549.47 300.74C1545.08 305.39 1542.88 312.158 1542.88 321.045L1542.88 368.01L1528.78 368.01L1528.78 283.07L1542.88 283.07L1542.88 295.16C1545.67 290.82 1549.47 287.462 1554.28 285.085C1559.08 282.708 1564.38 281.52 1570.16 281.52Z" fill="#24293d" fill-rule="nonzero" opacity="1" stroke="none"/>
<path d="M1640.18 294.695L1640.18 344.76C1640.18 348.893 1641.06 351.812 1642.82 353.517C1644.58 355.222 1647.62 356.075 1651.96 356.075L1662.35 356.075L1662.35 368.01L1649.64 368.01C1641.79 368.01 1635.9 366.202 1631.97 362.585C1628.04 358.968 1626.08 353.027 1626.08 344.76L1626.08 294.695L1615.07 294.695L1615.07 283.07L1626.08 283.07L1626.08 261.68L1640.18 261.68L1640.18 283.07L1662.35 283.07L1662.35 294.695L1640.18 294.695Z" fill="#24293d" fill-rule="nonzero" opacity="1" stroke="none"/>
<path d="M1704.47 369.405C1697.96 369.405 1692.12 368.294 1686.95 366.072C1681.79 363.851 1677.71 360.751 1674.71 356.772C1671.71 352.794 1670.06 348.222 1669.75 343.055L1684.32 343.055C1684.73 347.292 1686.72 350.753 1690.29 353.44C1693.85 356.127 1698.53 357.47 1704.31 357.47C1709.69 357.47 1713.92 356.282 1717.02 353.905C1720.12 351.528 1721.67 348.532 1721.67 344.915C1721.67 341.195 1720.02 338.431 1716.71 336.622C1713.41 334.814 1708.29 333.032 1701.37 331.275C1695.07 329.622 1689.92 327.942 1685.95 326.237C1681.97 324.532 1678.56 322.001 1675.72 318.642C1672.87 315.284 1671.45 310.867 1671.45 305.39C1671.45 301.05 1672.75 297.072 1675.33 293.455C1677.91 289.838 1681.58 286.971 1686.33 284.852C1691.09 282.734 1696.51 281.675 1702.61 281.675C1712.01 281.675 1719.61 284.052 1725.39 288.805C1731.18 293.558 1734.28 300.068 1734.69 308.335L1720.59 308.335C1720.28 303.892 1718.5 300.327 1715.24 297.64C1711.99 294.953 1707.62 293.61 1702.14 293.61C1697.08 293.61 1693.05 294.695 1690.05 296.865C1687.06 299.035 1685.56 301.877 1685.56 305.39C1685.56 308.18 1686.46 310.479 1688.27 312.287C1690.08 314.096 1692.35 315.542 1695.09 316.627C1697.83 317.712 1701.63 318.927 1706.48 320.27C1712.58 321.923 1717.54 323.551 1721.36 325.152C1725.19 326.754 1728.47 329.157 1731.21 332.36C1733.94 335.563 1735.37 339.748 1735.47 344.915C1735.47 349.565 1734.18 353.75 1731.59 357.47C1729.01 361.19 1725.37 364.109 1720.67 366.227C1715.96 368.346 1710.57 369.405 1704.47 369.405Z" fill="#24293d" fill-rule="nonzero" opacity="1" stroke="none"/>
</g>
</g>
</g>
</svg>
