<?xml version="1.0" encoding="UTF-8" standalone="no"?>
<!DOCTYPE svg PUBLIC "-//W3C//DTD SVG 1.1//EN" "http://www.w3.org/Graphics/SVG/1.1/DTD/svg11.dtd">
<!-- Created with Vectornator (http://vectornator.io/) -->
<svg height="100%" stroke-miterlimit="10" style="fill-rule:nonzero;clip-rule:evenodd;stroke-linecap:round;stroke-linejoin:round;" version="1.1" viewBox="458.043 165 1003.91 300" width="100%" xml:space="preserve" xmlns="http://www.w3.org/2000/svg" xmlns:vectornator="http://vectornator.io" xmlns:xlink="http://www.w3.org/1999/xlink">
<defs>
<linearGradient gradientTransform="matrix(198.902 -100.371 100.371 198.902 461.387 306.194)" gradientUnits="userSpaceOnUse" id="LinearGradient" x1="0" x2="1" y1="0" y2="0">
<stop offset="0" stop-color="#ffc34d"/>
<stop offset="1" stop-color="#ffa800"/>
</linearGradient>
<linearGradient gradientTransform="matrix(44.4903 -193.76 193.76 44.4903 535.594 463.003)" gradientUnits="userSpaceOnUse" id="LinearGradient_2" x1="0" x2="1" y1="0" y2="0">
<stop offset="0" stop-color="#fea44c"/>
<stop offset="1" stop-color="#fc6500"/>
</linearGradient>
<linearGradient gradientTransform="matrix(46.88 -93.7683 93.7683 46.88 533.12 364.204)" gradientUnits="userSpaceOnUse" id="LinearGradient_3" x1="0" x2="1" y1="0" y2="0">
<stop offset="0" stop-color="#ffb54d"/>
<stop offset="1" stop-color="#fe8900"/>
</linearGradient>
</defs>
<clipPath id="ArtboardFrame">
<rect height="300" width="1003.91" x="458.043" y="165"/>
</clipPath>
<g clip-path="url(#ArtboardFrame)" id="Layer" vectornator:layerName="Layer">
<g opacity="1" vectornator:layerName="グループ 11">
<g opacity="1" vectornator:layerName="グループ 1">
<path d="M508.868 190.487C522.221 168.313 549.715 159.14 573.708 168.853L607.864 182.681C637.844 194.819 650.591 230.341 635.169 258.771L594.404 333.917C579.846 360.754 546.213 370.594 519.486 355.835L486.057 337.376C459.151 322.52 449.968 288.289 465.824 261.961L508.868 190.487Z" fill="url(#LinearGradient)" fill-rule="nonzero" opacity="1" stroke="none" vectornator:layerName="曲線 2"/>
<path d="M517.359 292.789C530.713 270.616 558.206 261.443 582.198 271.156L616.355 284.984C646.335 297.121 659.082 332.644 643.66 361.074L602.895 436.22C588.337 463.057 554.705 472.896 527.977 458.138L494.547 439.679C467.643 424.823 458.459 390.592 474.315 364.263L517.359 292.789Z" fill="url(#LinearGradient_2)" fill-rule="nonzero" opacity="1" stroke="none" vectornator:layerName="曲線 1"/>
<path d="M563.82 267.318C545.34 266.839 527.376 276.157 517.361 292.788L489.399 339.223L519.495 355.838C546.222 370.594 579.852 360.755 594.409 333.92L620.026 286.7C618.819 286.104 617.626 285.495 616.356 284.981L582.195 271.16C576.197 268.731 569.98 267.478 563.82 267.318Z" fill="url(#LinearGradient_3)" fill-rule="nonzero" opacity="1" stroke="none" vectornator:layerName="曲線 3"/>
</g>
<g opacity="1" vectornator:layerName="グループ 8">
<path d="M813.757 346.73L769.277 346.73L761.917 368.01L738.397 368.01L778.557 256.17L804.637 256.17L844.797 368.01L821.117 368.01L813.757 346.73ZM807.677 328.81L791.517 282.09L775.357 328.81L807.677 328.81Z" fill="#24293d" fill-rule="nonzero" opacity="1" stroke="none"/>
<path d="M849.077 323.69C849.077 314.517 850.943 306.49 854.677 299.61C858.41 292.73 863.583 287.397 870.197 283.61C876.81 279.823 884.383 277.93 892.917 277.93C903.903 277.93 912.997 280.677 920.197 286.17C927.397 291.663 932.223 299.37 934.677 309.29L910.517 309.29C909.237 305.45 907.077 302.437 904.037 300.25C900.997 298.063 897.237 296.97 892.757 296.97C886.357 296.97 881.29 299.29 877.557 303.93C873.823 308.57 871.957 315.157 871.957 323.69C871.957 332.117 873.823 338.65 877.557 343.29C881.29 347.93 886.357 350.25 892.757 350.25C901.823 350.25 907.743 346.197 910.517 338.09L934.677 338.09C932.223 347.69 927.37 355.317 920.117 360.97C912.863 366.623 903.797 369.45 892.917 369.45C884.383 369.45 876.81 367.557 870.197 363.77C863.583 359.983 858.41 354.65 854.677 347.77C850.943 340.89 849.077 332.863 849.077 323.69Z" fill="#24293d" fill-rule="nonzero" opacity="1" stroke="none"/>
<path d="M940.397 323.69C940.397 314.517 942.263 306.49 945.997 299.61C949.73 292.73 954.903 287.397 961.517 283.61C968.13 279.823 975.703 277.93 984.237 277.93C995.223 277.93 1004.32 280.677 1011.52 286.17C1018.72 291.663 1023.54 299.37 1026 309.29L1001.84 309.29C1000.56 305.45 998.397 302.437 995.357 300.25C992.317 298.063 988.557 296.97 984.077 296.97C977.677 296.97 972.61 299.29 968.877 303.93C965.143 308.57 963.277 315.157 963.277 323.69C963.277 332.117 965.143 338.65 968.877 343.29C972.61 347.93 977.677 350.25 984.077 350.25C993.143 350.25 999.063 346.197 1001.84 338.09L1026 338.09C1023.54 347.69 1018.69 355.317 1011.44 360.97C1004.18 366.623 995.117 369.45 984.237 369.45C975.703 369.45 968.13 367.557 961.517 363.77C954.903 359.983 949.73 354.65 945.997 347.77C942.263 340.89 940.397 332.863 940.397 323.69Z" fill="#24293d" fill-rule="nonzero" opacity="1" stroke="none"/>
<path d="M1076.84 369.45C1068.3 369.45 1060.62 367.557 1053.8 363.77C1046.97 359.983 1041.61 354.623 1037.72 347.69C1033.82 340.757 1031.88 332.757 1031.88 323.69C1031.88 314.623 1033.88 306.623 1037.88 299.69C1041.88 292.757 1047.34 287.397 1054.28 283.61C1061.21 279.823 1068.94 277.93 1077.48 277.93C1086.01 277.93 1093.74 279.823 1100.68 283.61C1107.61 287.397 1113.08 292.757 1117.08 299.69C1121.08 306.623 1123.08 314.623 1123.08 323.69C1123.08 332.757 1121.02 340.757 1116.92 347.69C1112.81 354.623 1107.26 359.983 1100.28 363.77C1093.29 367.557 1085.48 369.45 1076.84 369.45ZM1076.84 349.93C1080.89 349.93 1084.7 348.943 1088.28 346.97C1091.85 344.997 1094.7 342.037 1096.84 338.09C1098.97 334.143 1100.04 329.343 1100.04 323.69C1100.04 315.263 1097.82 308.783 1093.4 304.25C1088.97 299.717 1083.56 297.45 1077.16 297.45C1070.76 297.45 1065.4 299.717 1061.08 304.25C1056.76 308.783 1054.6 315.263 1054.6 323.69C1054.6 332.117 1056.7 338.597 1060.92 343.13C1065.13 347.663 1070.44 349.93 1076.84 349.93Z" fill="#24293d" fill-rule="nonzero" opacity="1" stroke="none"/>
<path d="M1218.24 279.37L1218.24 368.01L1195.68 368.01L1195.68 356.81C1192.8 360.65 1189.04 363.663 1184.4 365.85C1179.76 368.037 1174.72 369.13 1169.28 369.13C1162.34 369.13 1156.21 367.663 1150.88 364.73C1145.54 361.797 1141.36 357.477 1138.32 351.77C1135.28 346.063 1133.76 339.263 1133.76 331.37L1133.76 279.37L1156.16 279.37L1156.16 328.17C1156.16 335.21 1157.92 340.623 1161.44 344.41C1164.96 348.197 1169.76 350.09 1175.84 350.09C1182.02 350.09 1186.88 348.197 1190.4 344.41C1193.92 340.623 1195.68 335.21 1195.68 328.17L1195.68 279.37L1218.24 279.37Z" fill="#24293d" fill-rule="nonzero" opacity="1" stroke="none"/>
<path d="M1284.44 278.09C1295 278.09 1303.53 281.423 1310.04 288.09C1316.54 294.757 1319.8 304.063 1319.8 316.01L1319.8 368.01L1297.4 368.01L1297.4 319.05C1297.4 312.01 1295.64 306.597 1292.12 302.81C1288.6 299.023 1283.8 297.13 1277.72 297.13C1271.53 297.13 1266.65 299.023 1263.08 302.81C1259.5 306.597 1257.72 312.01 1257.72 319.05L1257.72 368.01L1235.32 368.01L1235.32 279.37L1257.72 279.37L1257.72 290.41C1260.7 286.57 1264.52 283.557 1269.16 281.37C1273.8 279.183 1278.89 278.09 1284.44 278.09Z" fill="#24293d" fill-rule="nonzero" opacity="1" stroke="none"/>
<path d="M1362.16 297.77L1362.16 340.65C1362.16 343.637 1362.88 345.797 1364.32 347.13C1365.76 348.463 1368.18 349.13 1371.6 349.13L1382 349.13L1382 368.01L1367.92 368.01C1349.04 368.01 1339.6 358.837 1339.6 340.49L1339.6 297.77L1329.04 297.77L1329.04 279.37L1339.6 279.37L1339.6 257.45L1362.16 257.45L1362.16 279.37L1382 279.37L1382 297.77L1362.16 297.77Z" fill="#24293d" fill-rule="nonzero" opacity="1" stroke="none"/>
<path d="M1427.08 369.45C1419.82 369.45 1413.32 368.143 1407.56 365.53C1401.8 362.917 1397.24 359.37 1393.88 354.89C1390.52 350.41 1388.68 345.45 1388.36 340.01L1410.92 340.01C1411.34 343.423 1413.02 346.25 1415.96 348.49C1418.89 350.73 1422.54 351.85 1426.92 351.85C1431.18 351.85 1434.52 350.997 1436.92 349.29C1439.32 347.583 1440.52 345.397 1440.52 342.73C1440.52 339.85 1439.05 337.69 1436.12 336.25C1433.18 334.81 1428.52 333.237 1422.12 331.53C1415.5 329.93 1410.09 328.277 1405.88 326.57C1401.66 324.863 1398.04 322.25 1395 318.73C1391.96 315.21 1390.44 310.463 1390.44 304.49C1390.44 299.583 1391.85 295.103 1394.68 291.05C1397.5 286.997 1401.56 283.797 1406.84 281.45C1412.12 279.103 1418.33 277.93 1425.48 277.93C1436.04 277.93 1444.46 280.57 1450.76 285.85C1457.05 291.13 1460.52 298.25 1461.16 307.21L1439.72 307.21C1439.4 303.69 1437.93 300.89 1435.32 298.81C1432.7 296.73 1429.21 295.69 1424.84 295.69C1420.78 295.69 1417.66 296.437 1415.48 297.93C1413.29 299.423 1412.2 301.503 1412.2 304.17C1412.2 307.157 1413.69 309.423 1416.68 310.97C1419.66 312.517 1424.3 314.09 1430.6 315.69C1437 317.29 1442.28 318.943 1446.44 320.65C1450.6 322.357 1454.2 324.997 1457.24 328.57C1460.28 332.143 1461.85 336.863 1461.96 342.73C1461.96 347.85 1460.54 352.437 1457.72 356.49C1454.89 360.543 1450.84 363.717 1445.56 366.01C1440.28 368.303 1434.12 369.45 1427.08 369.45Z" fill="#24293d" fill-rule="nonzero" opacity="1" stroke="none"/>
</g>
</g>
</g>
</svg>
