<svg width="165" height="38" viewBox="0 0 165 38" fill="none" xmlns="http://www.w3.org/2000/svg">
<path d="M12.2057 4.51543L19.9917 0C26.7305 11.7241 22.7314 26.7157 11.0596 33.4845L3.27349 38C-3.46527 26.2758 0.533787 11.2844 12.2057 4.51543Z" fill="url(#paint0_linear_18_2)"/>
<path d="M23.7943 33.4845L16.0083 38C9.26955 26.2759 13.2686 11.2843 24.9404 4.51543L32.7265 0C39.4653 11.7241 35.4662 26.7156 23.7943 33.4845Z" fill="url(#paint1_linear_18_2)"/>
<path d="M71.072 26.44H62.176L60.704 30.696H56L64.032 8.328H69.248L77.28 30.696H72.544L71.072 26.44ZM69.856 22.856L66.624 13.512L63.392 22.856H69.856Z" fill="#24293D"/>
<path d="M84.7623 15.56C85.3383 14.7067 86.1276 14.0133 87.1303 13.48C88.1543 12.9467 89.3169 12.68 90.6183 12.68C92.1329 12.68 93.4983 13.0533 94.7143 13.8C95.9516 14.5467 96.9223 15.6133 97.6263 17C98.3516 18.3653 98.7143 19.9547 98.7143 21.768C98.7143 23.5813 98.3516 25.192 97.6263 26.6C96.9223 27.9867 95.9516 29.064 94.7143 29.832C93.4983 30.6 92.1329 30.984 90.6183 30.984C89.2956 30.984 88.1329 30.728 87.1303 30.216C86.1489 29.6827 85.3596 29 84.7623 28.168V30.696H80.2823V7.016H84.7623V15.56ZM94.1383 21.768C94.1383 20.7013 93.9143 19.784 93.4663 19.016C93.0396 18.2267 92.4636 17.6293 91.7383 17.224C91.0343 16.8187 90.2663 16.616 89.4343 16.616C88.6236 16.616 87.8556 16.8293 87.1303 17.256C86.4263 17.6613 85.8503 18.2587 85.4023 19.048C84.9756 19.8373 84.7623 20.7653 84.7623 21.832C84.7623 22.8987 84.9756 23.8267 85.4023 24.616C85.8503 25.4053 86.4263 26.0133 87.1303 26.44C87.8556 26.8453 88.6236 27.048 89.4343 27.048C90.2663 27.048 91.0343 26.8347 91.7383 26.408C92.4636 25.9813 93.0396 25.3733 93.4663 24.584C93.9143 23.7947 94.1383 22.856 94.1383 21.768Z" fill="#24293D"/>
<path d="M106.45 7.016V30.696H101.97V7.016H106.45Z" fill="#24293D"/>
<path d="M109.724 21.768C109.724 19.976 110.076 18.3867 110.78 17C111.505 15.6133 112.476 14.5467 113.692 13.8C114.929 13.0533 116.305 12.68 117.82 12.68C119.143 12.68 120.295 12.9467 121.276 13.48C122.279 14.0133 123.079 14.6853 123.676 15.496V12.968H128.188V30.696H123.676V28.104C123.1 28.936 122.3 29.6293 121.276 30.184C120.273 30.7173 119.111 30.984 117.788 30.984C116.295 30.984 114.929 30.6 113.692 29.832C112.476 29.064 111.505 27.9867 110.78 26.6C110.076 25.192 109.724 23.5813 109.724 21.768ZM123.676 21.832C123.676 20.744 123.463 19.816 123.036 19.048C122.609 18.2587 122.033 17.6613 121.308 17.256C120.583 16.8293 119.804 16.616 118.972 16.616C118.14 16.616 117.372 16.8187 116.668 17.224C115.964 17.6293 115.388 18.2267 114.94 19.016C114.513 19.784 114.3 20.7013 114.3 21.768C114.3 22.8347 114.513 23.7733 114.94 24.584C115.388 25.3733 115.964 25.9813 116.668 26.408C117.393 26.8347 118.161 27.048 118.972 27.048C119.804 27.048 120.583 26.8453 121.308 26.44C122.033 26.0133 122.609 25.416 123.036 24.648C123.463 23.8587 123.676 22.92 123.676 21.832Z" fill="#24293D"/>
<path d="M136.66 27.016H144.564V30.696H131.572V27.08L139.316 16.648H131.604V12.968H144.468V16.584L136.66 27.016Z" fill="#24293D"/>
<path d="M164.512 21.448C164.512 22.088 164.47 22.664 164.384 23.176H151.424C151.531 24.456 151.979 25.4587 152.768 26.184C153.558 26.9093 154.528 27.272 155.68 27.272C157.344 27.272 158.528 26.5573 159.232 25.128H164.064C163.552 26.8347 162.571 28.2427 161.12 29.352C159.67 30.44 157.888 30.984 155.776 30.984C154.07 30.984 152.534 30.6107 151.168 29.864C149.824 29.096 148.768 28.0187 148 26.632C147.254 25.2453 146.88 23.6453 146.88 21.832C146.88 19.9973 147.254 18.3867 148 17C148.747 15.6133 149.792 14.5467 151.136 13.8C152.48 13.0533 154.027 12.68 155.776 12.68C157.462 12.68 158.966 13.0427 160.288 13.768C161.632 14.4933 162.667 15.528 163.392 16.872C164.139 18.1947 164.512 19.72 164.512 21.448ZM159.872 20.168C159.851 19.016 159.435 18.0987 158.624 17.416C157.814 16.712 156.822 16.36 155.648 16.36C154.539 16.36 153.6 16.7013 152.832 17.384C152.086 18.0453 151.627 18.9733 151.456 20.168H159.872Z" fill="#24293D"/>
<defs>
<linearGradient id="paint0_linear_18_2" x1="0" y1="38" x2="33.8442" y2="17.2791" gradientUnits="userSpaceOnUse">
<stop stop-color="#FFC34D"/>
<stop offset="1" stop-color="#FFA800"/>
</linearGradient>
<linearGradient id="paint1_linear_18_2" x1="23.0802" y1="38" x2="29.5742" y2="-0.722853" gradientUnits="userSpaceOnUse">
<stop stop-color="#FEA44C"/>
<stop offset="1" stop-color="#FC6500"/>
</linearGradient>
</defs>
</svg>
