<?xml version="1.0" encoding="UTF-8" standalone="no"?>
<!DOCTYPE svg PUBLIC "-//W3C//DTD SVG 1.1//EN" "http://www.w3.org/Graphics/SVG/1.1/DTD/svg11.dtd">
<!-- Created with Vectornator (http://vectornator.io/) -->
<svg height="100%" stroke-miterlimit="10" style="fill-rule:nonzero;clip-rule:evenodd;stroke-linecap:round;stroke-linejoin:round;" version="1.1" viewBox="221.091 195.745 1477.82 300" width="100%" xml:space="preserve" xmlns="http://www.w3.org/2000/svg" xmlns:vectornator="http://vectornator.io" xmlns:xlink="http://www.w3.org/1999/xlink">
<defs>
<linearGradient gradientTransform="matrix(198.902 -100.371 100.371 198.902 224.434 336.939)" gradientUnits="userSpaceOnUse" id="LinearGradient" x1="0" x2="1" y1="0" y2="0">
<stop offset="0" stop-color="#ffc34d"/>
<stop offset="1" stop-color="#ffa800"/>
</linearGradient>
<linearGradient gradientTransform="matrix(44.4903 -193.76 193.76 44.4903 298.642 493.748)" gradientUnits="userSpaceOnUse" id="LinearGradient_2" x1="0" x2="1" y1="0" y2="0">
<stop offset="0" stop-color="#fea44c"/>
<stop offset="1" stop-color="#fc6500"/>
</linearGradient>
<linearGradient gradientTransform="matrix(46.88 -93.7683 93.7683 46.88 296.167 394.949)" gradientUnits="userSpaceOnUse" id="LinearGradient_3" x1="0" x2="1" y1="0" y2="0">
<stop offset="0" stop-color="#ffb54d"/>
<stop offset="1" stop-color="#fe8900"/>
</linearGradient>
</defs>
<clipPath id="ArtboardFrame">
<rect height="300" width="1477.82" x="221.091" y="195.745"/>
</clipPath>
<g clip-path="url(#ArtboardFrame)" id="Layer" vectornator:layerName="Layer">
<g opacity="1" vectornator:layerName="グループ 6">
<g opacity="1" vectornator:layerName="グループ 1">
<path d="M271.915 221.232C285.269 199.058 312.762 189.885 336.755 199.599L370.911 213.427C400.891 225.564 413.639 261.086 398.216 289.516L357.451 364.663C342.894 391.499 309.261 401.339 282.534 386.581L249.104 368.122C222.199 353.265 213.016 319.034 228.871 292.706L271.915 221.232Z" fill="url(#LinearGradient)" fill-rule="nonzero" opacity="1" stroke="none" vectornator:layerName="曲線 2"/>
<path d="M280.407 323.535C293.76 301.361 321.254 292.188 345.246 301.901L379.402 315.73C409.382 327.867 422.13 363.389 406.707 391.819L365.943 466.965C351.384 493.802 317.752 503.642 291.025 488.883L257.595 470.424C230.69 455.568 221.506 421.337 237.362 395.009L280.407 323.535Z" fill="url(#LinearGradient_2)" fill-rule="nonzero" opacity="1" stroke="none" vectornator:layerName="曲線 1"/>
<path d="M326.868 298.063C308.388 297.585 290.423 306.903 280.408 323.533L252.447 369.968L282.543 386.584C309.269 401.34 342.899 391.5 357.457 364.665L383.073 317.445C381.866 316.849 380.673 316.241 379.403 315.726L345.243 301.905C339.245 299.477 333.028 298.223 326.868 298.063Z" fill="url(#LinearGradient_3)" fill-rule="nonzero" opacity="1" stroke="none" vectornator:layerName="曲線 3"/>
</g>
<g opacity="1" vectornator:layerName="グループ 3">
<path d="M1163.16 374.73L1116.04 374.73L1107.36 398.755L1092.48 398.755L1131.54 291.34L1147.81 291.34L1186.72 398.755L1171.84 398.755L1163.16 374.73ZM1159.13 363.26L1139.6 308.7L1120.07 363.26L1159.13 363.26Z" fill="#24293d" fill-rule="nonzero" opacity="1" stroke="none"/>
<path d="M1193.5 356.13C1193.5 347.347 1195.26 339.674 1198.77 333.113C1202.28 326.551 1207.16 321.462 1213.42 317.845C1219.67 314.229 1226.82 312.42 1234.88 312.42C1245.32 312.42 1253.92 314.952 1260.69 320.015C1267.46 325.079 1271.93 332.105 1274.1 341.095L1258.91 341.095C1257.46 335.929 1254.65 331.847 1250.46 328.85C1246.28 325.854 1241.08 324.355 1234.88 324.355C1226.82 324.355 1220.31 327.119 1215.35 332.648C1210.39 338.176 1207.91 346.004 1207.91 356.13C1207.91 366.36 1210.39 374.265 1215.35 379.845C1220.31 385.425 1226.82 388.215 1234.88 388.215C1241.08 388.215 1246.25 386.769 1250.38 383.875C1254.52 380.982 1257.36 376.849 1258.91 371.475L1274.1 371.475C1271.83 380.155 1267.28 387.104 1260.46 392.323C1253.64 397.541 1245.11 400.15 1234.88 400.15C1226.82 400.15 1219.67 398.342 1213.42 394.725C1207.16 391.109 1202.28 385.994 1198.77 379.38C1195.26 372.767 1193.5 365.017 1193.5 356.13Z" fill="#24293d" fill-rule="nonzero" opacity="1" stroke="none"/>
<path d="M1282.58 356.13C1282.58 347.347 1284.34 339.674 1287.85 333.113C1291.37 326.551 1296.25 321.462 1302.5 317.845C1308.75 314.229 1315.91 312.42 1323.97 312.42C1334.41 312.42 1343.01 314.952 1349.78 320.015C1356.54 325.079 1361.01 332.105 1363.18 341.095L1347.99 341.095C1346.55 335.929 1343.73 331.847 1339.55 328.85C1335.36 325.854 1330.17 324.355 1323.97 324.355C1315.91 324.355 1309.4 327.119 1304.44 332.648C1299.48 338.176 1297 346.004 1297 356.13C1297 366.36 1299.48 374.265 1304.44 379.845C1309.4 385.425 1315.91 388.215 1323.97 388.215C1330.17 388.215 1335.34 386.769 1339.47 383.875C1343.6 380.982 1346.44 376.849 1347.99 371.475L1363.18 371.475C1360.91 380.155 1356.36 387.104 1349.54 392.323C1342.72 397.541 1334.2 400.15 1323.97 400.15C1315.91 400.15 1308.75 398.342 1302.5 394.725C1296.25 391.109 1291.37 385.994 1287.85 379.38C1284.34 372.767 1282.58 365.017 1282.58 356.13Z" fill="#24293d" fill-rule="nonzero" opacity="1" stroke="none"/>
<path d="M1413.98 400.15C1406.03 400.15 1398.82 398.342 1392.36 394.725C1385.9 391.109 1380.84 385.968 1377.17 379.303C1373.5 372.638 1371.67 364.914 1371.67 356.13C1371.67 347.45 1373.55 339.778 1377.33 333.113C1381.1 326.448 1386.24 321.333 1392.75 317.768C1399.26 314.203 1406.54 312.42 1414.6 312.42C1422.66 312.42 1429.95 314.203 1436.46 317.768C1442.97 321.333 1448.11 326.422 1451.88 333.035C1455.65 339.649 1457.54 347.347 1457.54 356.13C1457.54 364.914 1455.6 372.638 1451.73 379.303C1447.85 385.968 1442.61 391.109 1435.99 394.725C1429.38 398.342 1422.04 400.15 1413.98 400.15ZM1413.98 387.75C1419.05 387.75 1423.8 386.562 1428.24 384.185C1432.69 381.809 1436.28 378.244 1439.02 373.49C1441.75 368.737 1443.12 362.95 1443.12 356.13C1443.12 349.31 1441.78 343.524 1439.09 338.77C1436.41 334.017 1432.89 330.478 1428.55 328.153C1424.21 325.828 1419.51 324.665 1414.45 324.665C1409.28 324.665 1404.55 325.828 1400.27 328.153C1395.98 330.478 1392.54 334.017 1389.96 338.77C1387.38 343.524 1386.08 349.31 1386.08 356.13C1386.08 363.054 1387.35 368.892 1389.88 373.645C1392.41 378.399 1395.8 381.938 1400.03 384.263C1404.27 386.588 1408.92 387.75 1413.98 387.75Z" fill="#24293d" fill-rule="nonzero" opacity="1" stroke="none"/>
<path d="M1546.47 313.815L1546.47 398.755L1532.36 398.755L1532.36 386.2C1529.68 390.54 1525.93 393.924 1521.13 396.353C1516.32 398.781 1511.03 399.995 1505.24 399.995C1498.63 399.995 1492.68 398.626 1487.41 395.888C1482.14 393.149 1477.98 389.042 1474.94 383.565C1471.89 378.089 1470.36 371.424 1470.36 363.57L1470.36 313.815L1484.31 313.815L1484.31 361.71C1484.31 370.08 1486.43 376.513 1490.67 381.008C1494.91 385.503 1500.69 387.75 1508.03 387.75C1515.57 387.75 1521.51 385.425 1525.85 380.775C1530.19 376.125 1532.36 369.357 1532.36 360.47L1532.36 313.815L1546.47 313.815Z" fill="#24293d" fill-rule="nonzero" opacity="1" stroke="none"/>
<path d="M1606.72 312.265C1617.06 312.265 1625.43 315.391 1631.83 321.643C1638.24 327.894 1641.44 336.91 1641.44 348.69L1641.44 398.755L1627.49 398.755L1627.49 350.705C1627.49 342.232 1625.38 335.748 1621.14 331.253C1616.9 326.758 1611.12 324.51 1603.78 324.51C1596.34 324.51 1590.42 326.835 1586.03 331.485C1581.64 336.135 1579.44 342.904 1579.44 351.79L1579.44 398.755L1565.34 398.755L1565.34 313.815L1579.44 313.815L1579.44 325.905C1582.23 321.565 1586.03 318.207 1590.84 315.83C1595.64 313.454 1600.94 312.265 1606.72 312.265Z" fill="#24293d" fill-rule="nonzero" opacity="1" stroke="none"/>
<path d="M1676.74 325.44L1676.74 375.505C1676.74 379.639 1677.62 382.558 1679.38 384.263C1681.14 385.968 1684.18 386.82 1688.52 386.82L1698.91 386.82L1698.91 398.755L1686.2 398.755C1678.35 398.755 1672.46 396.947 1668.53 393.33C1664.6 389.714 1662.64 383.772 1662.64 375.505L1662.64 325.44L1651.63 325.44L1651.63 313.815L1662.64 313.815L1662.64 292.425L1676.74 292.425L1676.74 313.815L1698.91 313.815L1698.91 325.44L1676.74 325.44Z" fill="#24293d" fill-rule="nonzero" opacity="1" stroke="none"/>
</g>
<g opacity="1" vectornator:layerName="グループ 4">
<path d="M576.804 377.475L532.324 377.475L524.964 398.755L501.444 398.755L541.604 286.915L567.684 286.915L607.844 398.755L584.164 398.755L576.804 377.475ZM570.724 359.555L554.564 312.835L538.404 359.555L570.724 359.555Z" fill="#24293d" fill-rule="nonzero" opacity="1" stroke="none"/>
<path d="M645.284 323.075C648.164 318.809 652.137 315.342 657.204 312.675C662.271 310.009 668.057 308.675 674.564 308.675C682.137 308.675 688.991 310.542 695.124 314.275C701.257 318.009 706.111 323.315 709.684 330.195C713.257 337.075 715.044 345.049 715.044 354.115C715.044 363.182 713.257 371.209 709.684 378.195C706.111 385.182 701.257 390.595 695.124 394.435C688.991 398.275 682.137 400.195 674.564 400.195C667.951 400.195 662.164 398.889 657.204 396.275C652.244 393.662 648.271 390.275 645.284 386.115L645.284 398.755L622.884 398.755L622.884 280.355L645.284 280.355L645.284 323.075ZM692.164 354.115C692.164 348.782 691.071 344.169 688.884 340.275C686.697 336.382 683.817 333.422 680.244 331.395C676.671 329.369 672.804 328.355 668.644 328.355C664.591 328.355 660.777 329.395 657.204 331.475C653.631 333.555 650.751 336.569 648.564 340.515C646.377 344.462 645.284 349.102 645.284 354.435C645.284 359.769 646.377 364.409 648.564 368.355C650.751 372.302 653.631 375.315 657.204 377.395C660.777 379.475 664.591 380.515 668.644 380.515C672.804 380.515 676.671 379.449 680.244 377.315C683.817 375.182 686.697 372.142 688.884 368.195C691.071 364.249 692.164 359.555 692.164 354.115Z" fill="#24293d" fill-rule="nonzero" opacity="1" stroke="none"/>
<path d="M753.764 280.355L753.764 398.755L731.364 398.755L731.364 280.355L753.764 280.355Z" fill="#24293d" fill-rule="nonzero" opacity="1" stroke="none"/>
<path d="M770.084 354.115C770.084 345.155 771.871 337.209 775.444 330.275C779.017 323.342 783.871 318.009 790.004 314.275C796.137 310.542 802.991 308.675 810.564 308.675C817.177 308.675 822.964 310.009 827.924 312.675C832.884 315.342 836.857 318.702 839.844 322.755L839.844 310.115L862.404 310.115L862.404 398.755L839.844 398.755L839.844 385.795C836.964 389.955 832.991 393.395 827.924 396.115C822.857 398.835 817.017 400.195 810.404 400.195C802.937 400.195 796.137 398.275 790.004 394.435C783.871 390.595 779.017 385.182 775.444 378.195C771.871 371.209 770.084 363.182 770.084 354.115ZM839.844 354.435C839.844 348.995 838.777 344.329 836.644 340.435C834.511 336.542 831.631 333.555 828.004 331.475C824.377 329.395 820.484 328.355 816.324 328.355C812.164 328.355 808.324 329.369 804.804 331.395C801.284 333.422 798.431 336.382 796.244 340.275C794.057 344.169 792.964 348.782 792.964 354.115C792.964 359.449 794.057 364.115 796.244 368.115C798.431 372.115 801.311 375.182 804.884 377.315C808.457 379.449 812.271 380.515 816.324 380.515C820.484 380.515 824.377 379.475 828.004 377.395C831.631 375.315 834.511 372.329 836.644 368.435C838.777 364.542 839.844 359.875 839.844 354.435Z" fill="#24293d" fill-rule="nonzero" opacity="1" stroke="none"/>
<path d="M904.804 380.355L944.324 380.355L944.324 398.755L879.364 398.755L879.364 380.675L918.084 328.515L879.524 328.515L879.524 310.115L943.844 310.115L943.844 328.195L904.804 380.355Z" fill="#24293d" fill-rule="nonzero" opacity="1" stroke="none"/>
<path d="M1044 352.515C1044 355.715 1043.79 358.595 1043.36 361.155L978.564 361.155C979.097 367.555 981.337 372.569 985.284 376.195C989.231 379.822 994.084 381.635 999.844 381.635C1008.16 381.635 1014.08 378.062 1017.6 370.915L1041.76 370.915C1039.2 379.449 1034.3 386.462 1027.04 391.955C1019.79 397.449 1010.88 400.195 1000.32 400.195C991.791 400.195 984.137 398.302 977.364 394.515C970.591 390.729 965.311 385.369 961.524 378.435C957.737 371.502 955.844 363.502 955.844 354.435C955.844 345.262 957.711 337.209 961.444 330.275C965.177 323.342 970.404 318.009 977.124 314.275C983.844 310.542 991.577 308.675 1000.32 308.675C1008.75 308.675 1016.3 310.489 1022.96 314.115C1029.63 317.742 1034.8 322.889 1038.48 329.555C1042.16 336.222 1044 343.875 1044 352.515ZM1020.8 346.115C1020.7 340.355 1018.62 335.742 1014.56 332.275C1010.51 328.809 1005.55 327.075 999.684 327.075C994.137 327.075 989.471 328.755 985.684 332.115C981.897 335.475 979.577 340.142 978.724 346.115L1020.8 346.115Z" fill="#24293d" fill-rule="nonzero" opacity="1" stroke="none"/>
</g>
</g>
</g>
</svg>
